<svg xmlns="http://www.w3.org/2000/svg" xmlns:xlink="http://www.w3.org/1999/xlink" width="2000" zoomAndPan="magnify" viewBox="0 0 1500 1499.999933" height="2000" preserveAspectRatio="xMidYMid meet" version="1.0"><defs><clipPath id="9eca52d243"><path d="M 459.925781 278.992188 L 1040.425781 278.992188 L 1040.425781 1220.992188 L 459.925781 1220.992188 Z M 459.925781 278.992188 " clip-rule="nonzero"/></clipPath></defs><path fill="#fffef1" d="M 1476.300781 752.101562 C 1476.300781 673.800781 1515.300781 590.699219 1491.300781 520.199219 C 1466.699219 447 1383.300781 402 1337.398438 341.101562 C 1290.898438 279.601562 1271.699219 189.898438 1207.800781 145.199219 C 1144.5 101.101562 1050 111 974.101562 87 C 900.601562 64.199219 830.699219 1.800781 749.398438 1.800781 C 668.101562 1.800781 597.898438 63.898438 524.699219 87 C 448.800781 110.699219 354 100.800781 290.699219 145.199219 C 226.800781 189.898438 207.601562 279.601562 161.101562 341.101562 C 114.898438 402 31.800781 447 6.898438 520.199219 C -16.800781 590.699219 21.898438 673.800781 21.898438 752.101562 C 21.898438 830.398438 -17.101562 913.5 6.898438 984 C 31.5 1057.199219 114.898438 1102.199219 160.800781 1163.101562 C 207.300781 1224.601562 226.5 1314.300781 290.398438 1359 C 353.699219 1403.398438 448.199219 1393.5 524.398438 1417.199219 C 597.898438 1440 667.800781 1502.398438 749.101562 1502.398438 C 830.398438 1502.398438 900.601562 1440.300781 973.800781 1417.199219 C 1049.699219 1393.5 1144.5 1403.398438 1207.800781 1359 C 1271.699219 1314.300781 1290.898438 1224.601562 1337.398438 1163.101562 C 1383.601562 1102.199219 1466.699219 1057.199219 1491.300781 984 C 1515.300781 913.199219 1476.300781 830.101562 1476.300781 752.101562 Z M 1476.300781 752.101562 " fill-opacity="1" fill-rule="nonzero"/><g clip-path="url(#9eca52d243)"><path fill="#a91b60" d="M 931.957031 344.316406 C 930.71875 344.316406 929.476562 344.203125 928.234375 344.203125 C 899.121094 344.203125 871.585938 355.375 850.597656 375.574219 C 829.609375 395.886719 817.421875 423.195312 816.519531 452.421875 C 816.40625 457.164062 816.519531 461.789062 816.96875 466.414062 L 772.847656 657.351562 L 741.925781 664.796875 L 680.992188 432 C 676.703125 412.589844 667.335938 394.644531 653.34375 379.75 C 653.230469 379.636719 653.117188 379.523438 653.003906 379.414062 C 652.894531 379.074219 652.667969 378.734375 652.441406 378.398438 C 619.492188 329.875 573.5625 305.273438 540.722656 293.199219 C 505.402344 280.222656 477.984375 278.640625 476.855469 278.527344 C 472.453125 278.304688 468.730469 281.6875 468.503906 286.089844 C 468.277344 290.492188 471.664062 294.214844 476.0625 294.554688 C 476.289062 294.554688 502.695312 296.246094 535.984375 308.546875 C 556.296875 316.105469 582.027344 328.746094 605.949219 349.734375 C 596.246094 346.6875 585.976562 344.882812 575.480469 344.542969 C 574.238281 344.542969 573 344.542969 571.757812 344.542969 C 542.644531 344.542969 515.109375 355.714844 494.121094 375.914062 C 473.128906 396.226562 461.054688 423.535156 460.039062 452.761719 C 458.007812 514.375 506.53125 566.171875 568.144531 568.203125 C 569.386719 568.203125 570.628906 568.203125 571.871094 568.203125 C 600.984375 568.203125 628.519531 557.03125 649.507812 536.832031 C 652.214844 534.234375 654.699219 531.527344 657.066406 528.707031 L 715.070312 740.855469 L 656.84375 994.871094 L 656.730469 994.984375 C 654.585938 997.238281 654.019531 1000.285156 654.925781 1002.996094 L 630.550781 1109.40625 C 629.871094 1110.648438 629.535156 1112.117188 629.648438 1113.46875 L 610.011719 1199.007812 C 609.109375 1203.070312 611.367188 1207.132812 615.316406 1208.371094 L 644.992188 1217.851562 C 645.785156 1218.078125 646.574219 1218.191406 647.476562 1218.191406 C 648.71875 1218.191406 649.957031 1217.851562 651.085938 1217.289062 C 653.003906 1216.273438 654.359375 1214.691406 655.035156 1212.660156 L 756.710938 893.535156 L 844.730469 1215.59375 C 845.292969 1217.625 846.648438 1219.429688 848.453125 1220.445312 C 849.695312 1221.125 851.046875 1221.460938 852.402344 1221.460938 C 853.078125 1221.460938 853.871094 1221.351562 854.546875 1221.125 L 884.449219 1212.546875 C 888.398438 1211.417969 890.882812 1207.46875 890.09375 1203.40625 L 801.960938 728.78125 L 850.710938 536.605469 C 870.007812 555.226562 895.847656 566.960938 924.625 567.863281 C 925.863281 567.863281 927.105469 567.976562 928.347656 567.976562 C 957.460938 567.976562 984.996094 556.804688 1005.984375 536.605469 C 1026.972656 516.292969 1039.046875 488.984375 1040.0625 459.871094 C 1042.09375 398.144531 993.570312 346.347656 931.957031 344.316406 Z M 642.171875 1200.136719 L 627.050781 1195.28125 L 631.679688 1174.859375 L 659.324219 1145.855469 Z M 663.160156 1134.570312 C 662.710938 1133.78125 662.257812 1132.992188 661.46875 1132.316406 C 658.308594 1129.269531 653.230469 1129.382812 650.183594 1132.539062 L 638.785156 1144.503906 L 645.21875 1116.628906 L 673.769531 1086.726562 C 676.816406 1083.566406 676.703125 1078.488281 673.542969 1075.441406 C 670.382812 1072.394531 665.304688 1072.507812 662.257812 1075.667969 L 652.214844 1086.160156 L 658.082031 1060.769531 C 658.535156 1060.433594 658.984375 1060.09375 659.324219 1059.644531 L 689.679688 1027.820312 C 692.726562 1024.660156 692.613281 1019.582031 689.453125 1016.535156 C 686.292969 1013.488281 681.214844 1013.601562 678.171875 1016.761719 L 664.96875 1030.640625 L 671.398438 1002.542969 L 698.707031 973.992188 C 701.753906 970.832031 701.640625 965.753906 698.480469 962.707031 C 695.324219 959.660156 690.246094 959.773438 687.199219 962.933594 L 678.394531 972.1875 L 682.570312 953.792969 C 683.585938 953.34375 684.488281 952.777344 685.277344 951.988281 L 715.632812 920.167969 C 718.679688 917.007812 718.570312 911.929688 715.410156 908.882812 C 712.25 905.835938 707.171875 905.949219 704.125 909.105469 L 689.339844 924.679688 L 695.773438 896.582031 L 724.664062 866.339844 C 727.707031 863.179688 727.597656 858.101562 724.4375 855.054688 C 721.277344 852.007812 716.199219 852.121094 713.152344 855.28125 L 702.769531 866.113281 L 724.097656 773.355469 L 749.148438 865.210938 Z M 857.933594 1203.632812 L 764.949219 863.292969 C 764.949219 863.292969 764.949219 863.292969 764.949219 863.179688 L 730.980469 738.597656 C 730.980469 738.484375 730.980469 738.484375 730.980469 738.371094 L 669.03125 511.554688 L 668.125 508.28125 C 667 503.992188 662.597656 501.511719 658.308594 502.640625 C 656.390625 503.203125 654.8125 504.332031 653.796875 505.910156 C 653.683594 506.136719 653.570312 506.25 653.457031 506.476562 C 653.457031 506.476562 653.34375 506.589844 653.34375 506.589844 C 649.167969 513.246094 644.203125 519.453125 638.449219 525.09375 C 620.507812 542.472656 596.808594 552.066406 571.871094 552.066406 C 570.855469 552.066406 569.726562 552.066406 568.710938 552.066406 C 515.898438 550.371094 474.257812 506.023438 475.953125 453.101562 C 476.742188 428.046875 487.125 404.691406 505.179688 387.3125 C 523.121094 369.933594 546.816406 360.339844 571.757812 360.339844 C 572.773438 360.339844 573.902344 360.339844 574.917969 360.339844 C 600.53125 361.132812 624.230469 371.964844 641.722656 390.585938 C 653.570312 403.109375 661.582031 418.34375 665.304688 434.707031 C 665.304688 434.933594 665.417969 435.269531 665.417969 435.496094 L 665.53125 435.949219 L 679.074219 487.742188 L 728.386719 676.421875 C 729.515625 680.597656 733.800781 683.191406 737.976562 682.175781 L 775.441406 673.148438 L 873.277344 1199.230469 Z M 1024.152344 459.308594 C 1023.363281 484.359375 1012.980469 507.71875 994.925781 525.09375 C 985.898438 533.785156 975.515625 540.554688 964.230469 545.070312 C 952.949219 549.582031 940.761719 552.066406 928.347656 552.066406 C 927.332031 552.066406 926.203125 552.066406 925.1875 552.066406 C 895.847656 551.164062 869.894531 536.945312 852.96875 515.503906 C 851.953125 514.148438 850.371094 513.132812 848.566406 512.683594 C 844.277344 511.554688 839.988281 514.148438 838.863281 518.4375 L 837.957031 522.046875 L 794.964844 691.316406 L 789.546875 661.976562 C 789.433594 661.1875 789.097656 660.285156 788.644531 659.605469 L 825.546875 500.15625 L 832.65625 469.238281 C 832.878906 467.996094 832.992188 466.980469 832.878906 465.964844 C 832.429688 461.675781 832.316406 457.277344 832.429688 452.875 C 833.21875 427.824219 843.601562 404.464844 861.65625 387.085938 C 879.597656 369.707031 903.296875 360.117188 928.234375 360.117188 C 929.25 360.117188 930.378906 360.117188 931.394531 360.117188 C 984.207031 362.035156 1025.847656 406.382812 1024.152344 459.308594 Z M 1024.152344 459.308594 " fill-opacity="1" fill-rule="nonzero"/></g><path fill="#a91b60" d="M 930.605469 384.828125 C 911.195312 384.152344 892.574219 391.375 878.695312 404.800781 C 865.265625 417.78125 857.59375 435.15625 856.917969 453.777344 C 855.675781 493.160156 886.59375 526.109375 925.976562 527.464844 C 926.769531 527.464844 927.558594 527.464844 928.347656 527.464844 C 946.96875 527.464844 964.570312 520.355469 977.886719 507.378906 C 991.316406 494.402344 998.988281 477.023438 999.664062 458.402344 C 1000.90625 419.132812 969.988281 386.070312 930.605469 384.828125 Z M 983.640625 457.953125 C 982.625 488.082031 958.363281 511.554688 928.234375 511.554688 C 927.671875 511.554688 926.992188 511.554688 926.429688 511.554688 C 895.847656 510.539062 871.8125 484.921875 872.828125 454.339844 C 873.84375 424.324219 898.105469 400.738281 928.121094 400.738281 C 928.6875 400.738281 929.363281 400.738281 929.925781 400.738281 C 960.621094 401.753906 984.65625 427.371094 983.640625 457.953125 Z M 983.640625 457.953125 " fill-opacity="1" fill-rule="nonzero"/><path fill="#a91b60" d="M 574.125 384.941406 C 554.605469 384.265625 536.097656 391.488281 522.21875 404.914062 C 508.789062 417.890625 501.117188 435.269531 500.4375 453.890625 C 499.199219 493.273438 530.117188 526.222656 569.5 527.578125 C 570.289062 527.578125 571.078125 527.578125 571.871094 527.578125 C 590.488281 527.578125 608.09375 520.46875 621.410156 507.492188 C 634.835938 494.515625 642.511719 477.136719 643.1875 458.515625 C 644.429688 419.246094 613.398438 386.183594 574.125 384.941406 Z M 627.164062 458.066406 C 626.148438 488.082031 601.886719 511.667969 571.757812 511.667969 C 571.191406 511.667969 570.515625 511.667969 569.953125 511.667969 C 539.371094 510.652344 515.335938 485.035156 516.351562 454.453125 C 517.367188 424.324219 541.628906 400.851562 571.757812 400.851562 C 572.320312 400.851562 573 400.851562 573.5625 400.851562 C 604.144531 401.867188 628.179688 427.484375 627.164062 458.066406 Z M 627.164062 458.066406 " fill-opacity="1" fill-rule="nonzero"/><path fill="#a91b60" d="M 760.546875 705.308594 C 749.375 705.308594 740.234375 714.449219 740.234375 725.621094 C 740.234375 736.792969 749.375 745.933594 760.546875 745.933594 C 771.71875 745.933594 780.859375 736.792969 780.859375 725.621094 C 780.859375 714.449219 771.71875 705.308594 760.546875 705.308594 Z M 760.546875 730.023438 C 758.175781 730.023438 756.257812 728.105469 756.257812 725.734375 C 756.257812 723.363281 758.175781 721.445312 760.546875 721.445312 C 762.917969 721.445312 764.835938 723.363281 764.835938 725.734375 C 764.835938 728.105469 762.917969 730.023438 760.546875 730.023438 Z M 760.546875 730.023438 " fill-opacity="1" fill-rule="nonzero"/></svg>